<?xml version="1.0" encoding="utf-8"?>
<!-- Generator: Adobe Illustrator 21.1.0, SVG Export Plug-In . SVG Version: 6.00 Build 0)  -->
<svg version="1.1" id="Layer_1" xmlns="http://www.w3.org/2000/svg" xmlns:xlink="http://www.w3.org/1999/xlink" x="0px" y="0px"
	 viewBox="0 0 224 172" style="enable-background:new 0 0 224 172;" xml:space="preserve">
<style type="text/css">
	.st0{opacity:0.2;}
	.st1{fill:#484E4E;}
	.st2{fill:#B3B3B3;}
	.st3{fill:#CFCEC7;}
	.st4{fill:#FFFFFF;}
	.st5{opacity:0.5;}
</style>
<g class="st0">
	<path class="st1" d="M92.5,59.7v-3c0-1.2-0.9-2.1-2.1-2.1h-7.7c-1.2,0-2.1,0.9-2.1,2.1v3H92.5z"/>
	<path class="st1" d="M141.4,60.2c0,1-0.7,1.8-1.6,1.8H138c-0.9,0-1.6-0.8-1.6-1.8v-4.8c0-1,0.7-1.8,1.6-1.8h1.9
		c0.9,0,1.6,0.8,1.6,1.8L141.4,60.2L141.4,60.2z"/>
	<path class="st1" d="M125.9,62.6c0,1.2-2.2,2.1-3.2,2.1h-20.6c-1,0-3.2-0.9-3.2-2.1l1.3-13.6c0-1.2,0.8-2.1,1.9-2.1h20.6
		c1,0,1.9,0.9,1.9,2.1L125.9,62.6z"/>
	<path class="st2" d="M154,105.7c0,3.5-2.8,6.3-6.3,6.3H77.3c-3.5,0-6.3-2.8-6.3-6.3V65c0-3.5,2.8-6.3,6.3-6.3h70.3
		c3.5,0,6.3,2.8,6.3,6.3L154,105.7L154,105.7z"/>
	<rect x="71" y="71.1" class="st1" width="83" height="28.5"/>
	<circle class="st3" cx="112.4" cy="86" r="23.3"/>
	<circle class="st1" cx="112.4" cy="86" r="18.4"/>
	<circle class="st3" cx="112.4" cy="86" r="13.7"/>
	<circle class="st1" cx="112.4" cy="86" r="9.9"/>
	<path class="st4" d="M121.8,50.3c0,0.7-0.5,1.2-1.1,1.2H104c-0.6,0-1.1-0.6-1.1-1.2l0,0c0-0.7,0.5-1.2,1.1-1.2h16.7
		C121.3,49.1,121.8,49.6,121.8,50.3L121.8,50.3z"/>
	<circle class="st3" cx="142.8" cy="91.3" r="3.2"/>
	<circle class="st1" cx="142.8" cy="91.3" r="1.9"/>
	<circle class="st4" cx="106.7" cy="79.9" r="4.1"/>
</g>
<g class="st5">
	<path class="st2" d="M53.4,143.3h-1v-8.4h1V143.3z"/>
	<path class="st2" d="M64.2,143.3h-1v-5.6c0-0.4,0-1,0.1-1.6h0c-0.1,0.4-0.2,0.7-0.3,0.8l-2.9,6.5h-0.5l-2.9-6.4
		c-0.1-0.2-0.2-0.5-0.3-0.9h0c0,0.3,0,0.9,0,1.6v5.6h-0.9v-8.4h1.3l2.6,5.9c0.2,0.4,0.3,0.8,0.4,1h0c0.2-0.5,0.3-0.8,0.4-1l2.6-5.8
		h1.2V143.3z"/>
	<path class="st2" d="M72.9,143.3h-1.1l-0.9-2.4h-3.6l-0.8,2.4h-1.1l3.2-8.4h1L72.9,143.3z M70.6,140.1l-1.3-3.6
		c0-0.1-0.1-0.3-0.1-0.6h0c0,0.2-0.1,0.4-0.1,0.6l-1.3,3.6H70.6z"/>
	<path class="st2" d="M80.2,142.8c-0.8,0.5-1.8,0.7-2.8,0.7c-1.2,0-2.2-0.4-2.9-1.2s-1.1-1.8-1.1-3.1c0-1.3,0.4-2.4,1.2-3.2
		s1.9-1.3,3.1-1.3c0.9,0,1.7,0.1,2.3,0.4v1.1c-0.7-0.4-1.5-0.6-2.4-0.6c-0.9,0-1.7,0.3-2.3,1s-0.9,1.5-0.9,2.5
		c0,1.1,0.3,1.9,0.8,2.5s1.3,0.9,2.3,0.9c0.7,0,1.2-0.1,1.7-0.4v-2.4h-1.8V139h2.8V142.8z"/>
	<path class="st2" d="M86.6,143.3h-4.5v-8.4h4.3v0.9h-3.3v2.8h3v0.9h-3v2.9h3.5V143.3z"/>
	<path class="st2" d="M98.3,143.3h-1.2l-4.3-6.7c-0.1-0.2-0.2-0.3-0.3-0.5h0c0,0.2,0,0.6,0,1.2v6.1h-1v-8.4h1.3l4.2,6.6
		c0.2,0.3,0.3,0.5,0.3,0.6h0c0-0.2-0.1-0.7-0.1-1.2v-5.9h1V143.3z"/>
	<path class="st2" d="M103.9,143.5c-1.2,0-2.1-0.4-2.9-1.2s-1.1-1.8-1.1-3.1c0-1.4,0.4-2.4,1.1-3.2s1.7-1.2,3-1.2
		c1.2,0,2.1,0.4,2.8,1.2s1.1,1.8,1.1,3.1c0,1.4-0.4,2.5-1.1,3.3S105.1,143.5,103.9,143.5z M103.9,135.7c-0.9,0-1.6,0.3-2.2,1
		s-0.8,1.5-0.8,2.5s0.3,1.9,0.8,2.5s1.2,0.9,2.1,0.9c0.9,0,1.6-0.3,2.2-0.9s0.8-1.4,0.8-2.5c0-1.1-0.3-2-0.8-2.6
		S104.8,135.7,103.9,135.7z"/>
	<path class="st2" d="M114,135.8h-2.4v7.5h-1v-7.5h-2.4v-0.9h5.8V135.8z"/>
	<path class="st2" d="M125.1,143.3H124l-0.9-2.4h-3.6l-0.8,2.4h-1.1l3.2-8.4h1L125.1,143.3z M122.8,140.1l-1.3-3.6
		c0-0.1-0.1-0.3-0.1-0.6h0c0,0.2-0.1,0.4-0.1,0.6l-1.3,3.6H122.8z"/>
	<path class="st2" d="M131.7,134.9l-3.1,8.4h-1.1l-3-8.4h1.1l2.3,6.7c0.1,0.2,0.1,0.5,0.2,0.7h0c0-0.2,0.1-0.5,0.2-0.8l2.4-6.7
		H131.7z"/>
	<path class="st2" d="M138.7,143.3h-1.1l-0.9-2.4h-3.6l-0.8,2.4h-1.1l3.2-8.4h1L138.7,143.3z M136.4,140.1l-1.3-3.6
		c0-0.1-0.1-0.3-0.1-0.6h0c0,0.2-0.1,0.4-0.1,0.6l-1.3,3.6H136.4z"/>
	<path class="st2" d="M141,143.3h-1v-8.4h1V143.3z"/>
	<path class="st2" d="M147.5,143.3h-4.4v-8.4h1v7.5h3.4V143.3z"/>
	<path class="st2" d="M155.7,143.3h-1.1l-0.9-2.4h-3.6l-0.8,2.4h-1.1l3.2-8.4h1L155.7,143.3z M153.4,140.1l-1.3-3.6
		c0-0.1-0.1-0.3-0.1-0.6h0c0,0.2-0.1,0.4-0.1,0.6l-1.3,3.6H153.4z"/>
	<path class="st2" d="M156.9,143.3v-8.4h2.4c0.7,0,1.3,0.2,1.7,0.5s0.6,0.8,0.6,1.4c0,0.5-0.1,0.9-0.4,1.2s-0.6,0.6-1.1,0.8v0
		c0.6,0.1,1,0.3,1.4,0.6s0.5,0.8,0.5,1.4c0,0.7-0.3,1.3-0.8,1.7s-1.2,0.7-2,0.7H156.9z M157.9,135.8v2.7h1c0.5,0,1-0.1,1.3-0.4
		s0.5-0.6,0.5-1.1c0-0.8-0.5-1.2-1.6-1.2H157.9z M157.9,139.4v3h1.3c0.6,0,1-0.1,1.3-0.4s0.5-0.6,0.5-1.1c0-1-0.7-1.5-2-1.5H157.9z"
		/>
	<path class="st2" d="M168.1,143.3h-4.4v-8.4h1v7.5h3.4V143.3z"/>
	<path class="st2" d="M173.9,143.3h-4.5v-8.4h4.3v0.9h-3.3v2.8h3v0.9h-3v2.9h3.5V143.3z"/>
</g>
<g>
</g>
<g>
</g>
<g>
</g>
<g>
</g>
<g>
</g>
<g>
</g>
<g>
</g>
<g>
</g>
<g>
</g>
<g>
</g>
<g>
</g>
<g>
</g>
<g>
</g>
<g>
</g>
<g>
</g>
</svg>
