<?xml version="1.0" encoding="utf-8"?>
<!-- Generator: Adobe Illustrator 21.1.0, SVG Export Plug-In . SVG Version: 6.00 Build 0)  -->
<svg version="1.1" id="Capa_1" xmlns="http://www.w3.org/2000/svg" xmlns:xlink="http://www.w3.org/1999/xlink" x="0px" y="0px"
	 viewBox="0 0 137 137" style="enable-background:new 0 0 137 137;" xml:space="preserve">
<style type="text/css">
	.st0{fill:#A3A3A3;}
	.st1{fill:#414141;}
	.st2{fill:#E6E6E6;}
	.st3{fill:#D1D1D1;}
	.st4{fill:#FFFFFF;}
	.st5{fill:#797979;}
	.st6{fill:#919191;}
</style>
<path class="st0" d="M52.7,85.4C30,95.6,22.9,101.2,20,103.8c-4.7,4.2-7.4,19.9-10.2,33.2h58.7h58.7c-2.8-13.3-5.4-29-10.2-33.2
	c-2.9-2.6-9.7-8-32.1-18.1C75,96.3,56.2,92.9,52.7,85.4z"/>
<path class="st1" d="M89.5,7c6.2,1,9.6,5.2,11.1,11c3.8,15-4.2,47.6-31.9,48c-14.3,0.2-24.6-3.4-28.4-15
	c-3.8-11.6-5.3-30.2,2.9-40.7C53.5-2.8,75-2.9,89.5,7z"/>
<path class="st2" d="M81.1,62v28.8c-6.9,8.5-18.3,8.2-25.2,0V62C55.9,46.5,81.1,46.5,81.1,62z"/>
<path class="st3" d="M81.1,61v19.3c-4.8,3.5-9.4,5.4-12.6,5.4s-7.8-1.9-12.6-5.4V61C55.9,45.5,81.1,45.5,81.1,61z"/>
<path class="st2" d="M68.5,9.3c-42.3,0-27.1,51.1-24.3,55.2c3,4.5,17.5,16.4,24.3,16.4S89.8,69,92.8,64.5
	C95.6,60.4,110.8,9.3,68.5,9.3z"/>
<ellipse transform="matrix(0.9498 -0.3127 0.3127 0.9498 -11.9272 14.1868)" class="st2" cx="38.3" cy="44.3" rx="4.2" ry="7.3"/>
<ellipse transform="matrix(0.3128 -0.9498 0.9498 0.3128 25.6857 124.0578)" class="st2" cx="98.6" cy="44.3" rx="7.3" ry="4.2"/>
<path class="st1" d="M89.2,22.1c-7.4,4.6-16.3,3-12.8-1c3.4-4-0.3-1.2-7.1,1.7c-6.7,2.9-14.4,2.4-9.9,0c5.5-3-16.1-5-20.1,26
	C33.1,26.2,43.8,7.4,68,6.4C93.8,5.2,104.3,25.7,97.2,48C97.6,35.9,94.7,28,89.2,22.1z"/>
<path class="st4" d="M54.7,83.4l-8.9,4.8l13,18l9.8-9.3L54.7,83.4z"/>
<path class="st4" d="M82.4,83.4l8.9,4.8l-13,18l-9.8-9.3L82.4,83.4z"/>
<path class="st5" d="M63.1,101.8l3.1,4.7c1.6,0,3.2,0,4.7,0l3.1-4.7l-5.4-5.1L63.1,101.8z"/>
<polygon class="st5" points="66.1,106.6 61.8,137 75.2,137 70.8,106.6 "/>
<g>
	<path class="st6" d="M33.7,137h2c-0.1-8.9-0.1-15.4-0.1-15.4S34.7,128.3,33.7,137z"/>
	<path class="st6" d="M103.3,137h-2c0.1-8.9,0.1-15.4,0.1-15.4S102.2,128.3,103.3,137z"/>
</g>
<path class="st4" d="M55.9,60.5c3.5,2.8,23.6,2.6,27.1,0C79.9,75.1,60,75.6,55.9,60.5z"/>
</svg>
