<?xml version="1.0" encoding="utf-8"?>
<!-- Generator: Adobe Illustrator 21.1.0, SVG Export Plug-In . SVG Version: 6.00 Build 0)  -->
<svg version="1.1" id="Capa_1" xmlns="http://www.w3.org/2000/svg" xmlns:xlink="http://www.w3.org/1999/xlink" x="0px" y="0px"
	 viewBox="0 0 111.1 111.1" style="enable-background:new 0 0 111.1 111.1;" xml:space="preserve">
<style type="text/css">
	.st0{fill:#585858;}
	.st1{fill:#E6E6E6;}
	.st2{fill:#D1D1D1;}
	.st3{fill:#797979;}
	.st4{fill:#FFFFFF;}
	.st5{fill:#A3A3A3;}
	.st6{fill:#6E6E6E;}
	.st7{fill:none;stroke:#FFFFFF;stroke-width:1.1999;stroke-miterlimit:22.9256;stroke-dasharray:2.3998,3.5997;}
</style>
<g>
	<path class="st0" d="M56.3,93.3c-30.9,0.6-34.3-35.8-33.2-53.8C25.1,6,55.6-7.5,68,4c13.2,0,19.4,16.4,20.9,35.1
		C90.9,64.1,81.7,92.8,56.3,93.3z"/>
	<path class="st1" d="M65.2,70.6c-0.2,0.3-19.7,0.6-20,0.9c-6.1,8.8-19.4,12.6-30,15C4.8,88.8,4.4,102.2,4.4,111.1h102.3
		c0-8.9-0.2-22.2-10.9-24.6C85.1,84.1,71,79.8,65.2,70.6z"/>
	<path class="st1" d="M65.8,51.9V77c-5.6,7.4-14.9,7.2-20.5,0V51.9C45.3,38.3,65.8,38.3,65.8,51.9z"/>
	<path class="st2" d="M65.8,51.9v16.8c-3.9,3-7.6,4.7-10.3,4.7s-6.4-1.7-10.3-4.7V51.9C45.3,38.3,65.8,38.3,65.8,51.9z"/>
	<path class="st1" d="M55.5,69.3c-6.7,0-20.8-10.5-25.1-25.5C26,28.6,34.3,6.8,55.5,6.8c21.2,0,29.5,21.8,25.1,36.9
		C76.3,58.8,62.2,69.3,55.5,69.3z"/>
	<path class="st3" d="M47.5,54.2c3.4-3.3,6.1-0.8,8-0.8s4.6-2.5,8,0.8C61.7,62.8,49.9,63.1,47.5,54.2z"/>
	<path class="st4" d="M48.5,54.6c1.9-0.5,11.3-0.6,14-0.1C60.3,58.5,50.4,58.3,48.5,54.6z"/>
	<path class="st3" d="M47.5,54.2c3.4-3.3,6.1-0.8,8-0.8s4.6-2.5,8,0.8C58.4,56.7,51,55.5,47.5,54.2z"/>
	<ellipse transform="matrix(0.9189 -0.3946 0.3946 0.9189 -13.9464 14.8325)" class="st1" cx="29.1" cy="41.3" rx="4.2" ry="7.3"/>
	<ellipse transform="matrix(0.3946 -0.9188 0.9188 0.3946 12.0026 100.8806)" class="st1" cx="82.6" cy="41.3" rx="7.3" ry="4.2"/>
	<path class="st0" d="M82.7,43.5C90.8,8.9,66.4,3,52.2,3c-16,0-28.1,19-25.4,41.1c8.5-5.1,16.1-15.3,34.7-31.9
		c-2.7,4.9-8,13.7-26,29.8c9.7,1.6,27.7-10.6,37.3-23.4C75.2,27.7,78.5,37.7,82.7,43.5z"/>
	<path class="st5" d="M33.6,80.6c-5.8,2.8-12.5,4.6-18.4,5.9C4.8,88.9,4.4,102.2,4.4,111.1h102.3c0-8.9-0.2-22.2-10.9-24.6
		c-5.7-1.3-12.4-3.1-18.3-6l0,0c-8.8,14.6-16.9,22.6-21.9,25.4C50.5,103.2,42.4,95.2,33.6,80.6z"/>
	<g>
		<path class="st6" d="M22.7,111.1c0.1-2,0.2-4.4,0.7-7.4c-0.9,2.9-1.5,5.3-2,7.4H22.7z"/>
		<path class="st6" d="M88.4,111.1c-0.1-2-0.2-4.4-0.7-7.4c0.9,2.9,1.5,5.3,2,7.4H88.4z"/>
	</g>
	<path class="st7" d="M31.8,81.4c4.8,9.8,14.6,23.1,23.7,27.5 M79.3,81.4c-4.8,9.8-14.6,23.1-23.7,27.5"/>
</g>
</svg>
